<svg width="30" height="30" viewBox="0 0 30 30" fill="none" xmlns="http://www.w3.org/2000/svg">
<path fill-rule="evenodd" clip-rule="evenodd" d="M20.4909 12.0455C20.4909 16.7097 16.7097 20.4909 12.0455 20.4909C7.38116 20.4909 3.6 16.7097 3.6 12.0455C3.6 7.38116 7.38116 3.6 12.0455 3.6C16.7097 3.6 20.4909 7.38116 20.4909 12.0455ZM18.7173 19.5555C16.9431 21.1328 14.6062 22.0909 12.0455 22.0909C6.4975 22.0909 2 17.5934 2 12.0455C2 6.4975 6.4975 2 12.0455 2C17.5934 2 22.0909 6.4975 22.0909 12.0455C22.0909 14.6062 21.1328 16.9431 19.5555 18.7173L19.702 18.5707L27.3839 26.2525L26.2525 27.3839L18.5707 19.702L18.7173 19.5555Z" fill="#383838"/>
</svg>
